<svg width="21" height="23" viewBox="0 0 21 23" xmlns="http://www.w3.org/2000/svg">
    <path d="M19.6057 4.37501H15.7033V1.99993C15.7033 1.68503 15.5663 1.38306 15.3224 1.1604C15.0785 0.937544 14.7475 0.8125 14.4025 0.8125H6.59769C6.25274 0.8125 5.92173 0.937544 5.67783 1.1604C5.43393 1.38306 5.29696 1.68506 5.29696 1.99993V4.37501H1.39454C0.929821 4.37501 0.500382 4.60145 0.268021 4.96883C0.0356597 5.33622 0.0356597 5.78887 0.268021 6.15627C0.500382 6.52366 0.929816 6.75009 1.39454 6.75009H19.6055C20.0702 6.75009 20.4996 6.52366 20.732 6.15627C20.9643 5.78888 20.9643 5.33623 20.732 4.96883C20.4996 4.60145 20.0704 4.37501 19.6057 4.37501ZM7.89842 4.37501V3.18757H13.1016L13.1018 4.37501H7.89842ZM2.69527 7.93753H18.305V19.8124C18.305 20.4424 18.0308 21.0464 17.543 21.4919C17.055 21.9372 16.3934 22.1875 15.7033 22.1875H5.29718C4.60707 22.1875 3.94549 21.9372 3.45747 21.4919C2.96967 21.0464 2.69549 20.4424 2.69549 19.8124L2.69527 7.93753Z" />
</svg>
