<svg width="37" height="39" viewBox="0 0 37 39"  xmlns="http://www.w3.org/2000/svg">
    <path d="M3.69116 33.7497C-2.71807 27.2557 0.906545 21.8067 5.76872 16.8649L15.1546 7.3549L15.1543 7.35524C17.0431 5.31052 19.6837 4.15026 22.4476 4.15026C25.2118 4.15026 27.852 5.3106 29.7408 7.35524C31.7589 9.26901 32.904 11.9441 32.904 14.7449C32.904 17.5454 31.7588 20.2209 29.7408 22.1346L20.3549 31.6447L20.3553 31.6443C20.079 31.9226 19.7057 32.0785 19.3163 32.0785C18.9272 32.0785 18.5536 31.9226 18.2777 31.6443C17.9988 31.3641 17.8419 30.9825 17.8419 30.5843C17.8419 30.1864 17.9988 29.8049 18.2777 29.5246L27.6484 20.03C29.1146 18.6777 29.9506 16.7617 29.9506 14.7526C29.9506 12.7436 29.1146 10.8275 27.6484 9.47529C26.3138 7.98976 24.4228 7.14266 22.44 7.14266C20.4571 7.14266 18.5661 7.98973 17.2315 9.47529L7.86076 18.9699C2.33556 24.5682 1.83469 27.6439 5.76839 31.644C11.4557 37.3915 16.7599 37.3915 22.4471 31.644L30.7866 23.1943C33.7659 20.1755 34.9295 15.7755 33.8389 11.6522C32.7487 7.5285 29.5697 4.30749 25.4998 3.20285C21.4299 2.09787 17.0874 3.27682 14.1084 6.29556L2.64548 17.9101C2.38665 18.2543 1.99331 18.4679 1.56704 18.4956C1.14078 18.5232 0.723762 18.362 0.424202 18.0537C0.124262 17.7455 -0.0289959 17.3209 0.00454676 16.8894C0.0377636 16.4579 0.254164 16.0624 0.597522 15.8051L12.031 4.19058C14.8097 1.47108 18.5317 -0.0334723 22.3944 0.000565182C26.2578 0.0345548 29.953 1.60442 32.6845 4.37254C35.4165 7.14032 36.9659 10.8845 36.9994 14.7987C37.033 18.7129 35.5481 22.484 32.8641 25.2992L24.5247 33.7489C17.6146 40.7504 10.6007 40.7504 3.69096 33.7489L3.69116 33.7497Z" />
</svg>
