<svg xmlns="http://www.w3.org/2000/svg" width="20" height="16" viewBox="0 0 20 16" >
    <path d="M19.5419 0.934078C19.4096 0.796534 19.2522 0.687361 19.0788 0.612859C18.9053 0.538357 18.7193 0.5 18.5315 0.5C18.3436 0.5 18.1576 0.538357 17.9842 0.612859C17.8108 0.687361 17.6534 0.796534 17.5211 0.934078L6.91899 11.8815L2.46469 7.2736C2.32733 7.13677 2.16518 7.02918 1.9875 6.95698C1.80982 6.88477 1.62009 6.84936 1.42914 6.85277C1.23819 6.85618 1.04975 6.89833 0.874602 6.97683C0.699449 7.05533 0.541006 7.16864 0.408318 7.31029C0.275631 7.45193 0.171298 7.61913 0.101276 7.80236C0.031254 7.98558 -0.00308605 8.18123 0.000217618 8.37814C0.00352129 8.57505 0.0444038 8.76935 0.12053 8.94997C0.196657 9.13058 0.306536 9.29397 0.443896 9.43079L5.90859 15.0659C6.04088 15.2035 6.19828 15.3126 6.3717 15.3871C6.54512 15.4616 6.73112 15.5 6.91899 15.5C7.10685 15.5 7.29286 15.4616 7.46628 15.3871C7.6397 15.3126 7.79709 15.2035 7.92939 15.0659L19.5419 3.09128C19.6863 2.95386 19.8016 2.78708 19.8804 2.60144C19.9593 2.4158 20 2.21534 20 2.01268C20 1.81002 19.9593 1.60955 19.8804 1.42391C19.8016 1.23828 19.6863 1.0715 19.5419 0.934078Z" />
</svg>
