<svg width="17" height="19" viewBox="0 0 17 19" xmlns="http://www.w3.org/2000/svg">
    <path d="M17 6.65004V18.0501C17 18.302 16.9005 18.5437 16.7233 18.7218C16.5462 18.9 16.306 19 16.0556 19H11.3333C11.0829 19 10.8425 18.9 10.6655 18.7218C10.4884 18.5437 10.3889 18.302 10.3889 18.0501V13.889C10.4024 13.4251 10.2525 12.9716 9.96567 12.6081C9.6787 12.2449 9.27333 11.9952 8.82113 11.9036C8.26726 11.8074 7.69983 11.9642 7.27261 12.3316C6.84539 12.6988 6.60302 13.2383 6.61107 13.8035V18.05C6.61107 18.3019 6.51162 18.5436 6.33454 18.7218C6.15746 18.8999 5.91715 18.9999 5.66669 18.9999H0.944377C0.693933 18.9999 0.453771 18.8999 0.276689 18.7218C0.0994493 18.5436 0 18.3019 0 18.05V6.64996C0 6.35096 0.139925 6.06929 0.37772 5.8899L7.93334 0.189896C8.09682 0.0666413 8.29572 0 8.5 0C8.70428 0 8.90318 0.0666372 9.06666 0.189896L16.6223 5.8899C16.8601 6.0693 17 6.35095 17 6.64996L17 6.65004Z" />
</svg>
