<svg width="18" height="22" viewBox="0 0 18 22" xmlns="http://www.w3.org/2000/svg">
    <path d="M15.75 12.3282V8.82161C15.7484 7.25922 15.1827 5.7478 14.1532 4.55501C13.1236 3.36223 11.6967 2.56504 10.125 2.30465V1.1027C10.125 0.810247 10.0064 0.52977 9.79546 0.322974C9.58449 0.116177 9.29834 0 8.99997 0C8.7016 0 8.41545 0.116177 8.20447 0.322974C7.9935 0.52977 7.87497 0.810247 7.87497 1.1027V2.30465C6.30328 2.56504 4.87631 3.36223 3.84678 4.55501C2.81725 5.7478 2.25158 7.25922 2.24997 8.82161V12.3282C1.59348 12.5557 1.02484 12.9767 0.622025 13.5334C0.219208 14.0901 0.00192643 14.7553 -3.05176e-05 15.4378V17.6432C-3.05176e-05 17.9357 0.118496 18.2162 0.329475 18.423C0.540453 18.6298 0.826601 18.7459 1.12497 18.7459H4.65747C4.91654 19.6803 5.4821 20.5052 6.26689 21.0933C7.05169 21.6814 8.0121 22 8.99997 22C9.98784 22 10.9483 21.6814 11.733 21.0933C12.5178 20.5052 13.0834 19.6803 13.3425 18.7459H16.875C17.1733 18.7459 17.4595 18.6298 17.6705 18.423C17.8814 18.2162 18 17.9357 18 17.6432V15.4378C17.998 14.7553 17.7807 14.0901 17.3779 13.5334C16.9751 12.9767 16.4065 12.5557 15.75 12.3282ZM4.49997 8.82161C4.49997 7.65179 4.97407 6.52989 5.81799 5.7027C6.6619 4.87551 7.8065 4.41081 8.99997 4.41081C10.1934 4.41081 11.338 4.87551 12.182 5.7027C13.0259 6.52989 13.5 7.65179 13.5 8.82161V12.1297H4.49997V8.82161ZM8.99997 19.8486C8.60731 19.8463 8.22211 19.7433 7.88265 19.5499C7.54319 19.3564 7.26129 19.0792 7.06497 18.7459H10.935C10.7386 19.0792 10.4567 19.3564 10.1173 19.5499C9.77782 19.7433 9.39263 19.8463 8.99997 19.8486ZM15.75 16.5405H2.24997V15.4378C2.24997 15.1454 2.3685 14.8649 2.57947 14.6581C2.79045 14.4513 3.0766 14.3351 3.37497 14.3351H14.625C14.9233 14.3351 15.2095 14.4513 15.4205 14.6581C15.6314 14.8649 15.75 15.1454 15.75 15.4378V16.5405Z"/>
</svg>
