<svg width="21" height="22" viewBox="0 0 21 22"  xmlns="http://www.w3.org/2000/svg">
    <path d="M20.9999 15.1998V20.4501C20.9999 20.7285 20.8893 20.9957 20.6925 21.1926C20.4956 21.3894 20.2284 21.5 19.9499 21.5C14.6588 21.5 9.5846 19.3982 5.84328 15.6567C2.10196 11.9152 0 6.84065 0 1.54995C0 1.27151 0.110566 1.00432 0.307442 0.807443C0.504318 0.610566 0.771484 0.5 1.04995 0.5H6.30012C6.65134 0.501758 6.97845 0.679124 7.17164 0.972505L9.27171 4.12254C9.40654 4.32363 9.46753 4.56533 9.44451 4.8065C9.42148 5.0475 9.31601 5.27338 9.1455 5.44546L7.58103 6.99955C9.48156 10.6116 11.1195 12.2498 14.4796 13.9296L16.0546 12.3546C16.2267 12.1841 16.4525 12.0786 16.6935 12.0556C16.9347 12.0326 17.1764 12.0937 17.3775 12.2286L20.5275 14.3287C20.8209 14.5218 20.9981 14.8486 20.9999 15.1998Z" />
</svg>
