<svg width="22" height="22" viewBox="0 0 22 22" xmlns="http://www.w3.org/2000/svg">
    <path d="M9.16782 17.181C10.931 17.181 12.5773 16.6128 13.9156 15.666L18.9501 20.6528C19.1838 20.8843 19.4918 21 19.8104 21C20.5008 21 21 20.474 21 19.8006C21 19.485 20.8938 19.1904 20.6601 18.959L15.6575 13.9932C16.709 12.6255 17.3356 10.9316 17.3356 9.09048C17.3356 4.64019 13.6606 1 9.16782 1C4.66437 1 1 4.64019 1 9.09048C1 13.5408 4.66437 17.181 9.16782 17.181ZM9.16782 15.4345C5.65215 15.4345 2.76314 12.5623 2.76314 9.09048C2.76314 5.61862 5.65215 2.74645 9.16782 2.74645C12.6729 2.74645 15.5725 5.61862 15.5725 9.09048C15.5725 12.5623 12.6729 15.4345 9.16782 15.4345Z" />
</svg>
