<svg width="0" height="0"><symbol xmlns="http://www.w3.org/2000/svg" id="arrow" viewBox="0 0 37 24"><path d="M36.06 13.06a1.5 1.5 0 0 0 0-2.12l-9.545-9.547a1.5 1.5 0 1 0-2.122 2.122L32.88 12l-8.486 8.485a1.5 1.5 0 1 0 2.122 2.122l9.546-9.546ZM0 13.5h35v-3H0v3Z"/></symbol><symbol xmlns="http://www.w3.org/2000/svg" id="corner" viewBox="0 0 24 24"><path d="M3 17h6V0c-.193 2.84-.876 5.767-2.05 8.782-.904 2.325-2.446 4.485-4.625 6.48A1 1 0 0 0 3 17z"/><path d="M3 17h6V0c-.193 2.84-.876 5.767-2.05 8.782-.904 2.325-2.446 4.485-4.625 6.48A1 1 0 0 0 3 17z"/></symbol></svg>