<svg width="0" height="0"><symbol xmlns="http://www.w3.org/2000/svg" id="arrow" fill="none" viewBox="0 0 22 12"><path stroke="currentColor" stroke-linecap="round" stroke-linejoin="round" stroke-width="2" d="m1 1 10 10L21 1"/></symbol><symbol xmlns="http://www.w3.org/2000/svg" id="basket" viewBox="0 0 21 23"><path d="M19.606 4.375h-3.903V2c0-.315-.137-.617-.38-.84a1.366 1.366 0 0 0-.92-.347H6.598a1.37 1.37 0 0 0-.92.347 1.138 1.138 0 0 0-.381.84v2.375H1.395c-.465 0-.895.226-1.127.594a1.1 1.1 0 0 0 0 1.187c.232.368.662.594 1.127.594h18.21c.465 0 .895-.226 1.127-.594a1.1 1.1 0 0 0 0-1.187c-.232-.368-.662-.594-1.126-.594Zm-11.708 0V3.188h5.204v1.187H7.898ZM2.695 7.938h15.61v11.874c0 .63-.274 1.234-.762 1.68a2.733 2.733 0 0 1-1.84.695H5.297c-.69 0-1.352-.25-1.84-.695a2.276 2.276 0 0 1-.762-1.68V7.938Z"/></symbol><symbol xmlns="http://www.w3.org/2000/svg" id="clip" viewBox="0 0 37 39"><path d="M3.691 33.75C-2.719 27.256.907 21.807 5.77 16.865l9.386-9.51a9.929 9.929 0 0 1 7.293-3.205 9.929 9.929 0 0 1 7.293 3.205 10.184 10.184 0 0 1 3.163 7.39c0 2.8-1.145 5.476-3.163 7.39l-9.386 9.51a1.463 1.463 0 0 1-2.077 0 1.503 1.503 0 0 1 0-2.12l9.37-9.495a7.18 7.18 0 0 0 2.303-5.277 7.18 7.18 0 0 0-2.303-5.278 7.002 7.002 0 0 0-5.208-2.332 7.002 7.002 0 0 0-5.209 2.332l-9.37 9.495c-5.525 5.598-6.026 8.674-2.093 12.674 5.688 5.748 10.992 5.748 16.68 0l8.339-8.45c2.979-3.018 4.142-7.418 3.052-11.542-1.09-4.123-4.27-7.345-8.34-8.45a11.688 11.688 0 0 0-11.39 3.094L2.644 17.91a1.461 1.461 0 0 1-2.221.144 1.503 1.503 0 0 1 .174-2.249L12.03 4.191A14.63 14.63 0 0 1 22.394 0a14.636 14.636 0 0 1 10.29 4.372A15.026 15.026 0 0 1 37 14.799a15.033 15.033 0 0 1-4.135 10.5l-8.34 8.45c-6.91 7.001-13.923 7.001-20.833 0Z"/></symbol><symbol xmlns="http://www.w3.org/2000/svg" id="close" viewBox="0 0 10 10"><path d="M.134.78A.457.457 0 1 1 .78.134L5 4.354 9.22.134a.457.457 0 0 1 .646.646L5.646 5l4.22 4.22a.457.457 0 0 1-.646.646L5 5.646.78 9.866a.457.457 0 0 1-.646-.646L4.354 5 .134.78Z"/></symbol><symbol xmlns="http://www.w3.org/2000/svg" id="collapse" fill="currentColor" viewBox="0 0 256 256"><path d="M216 40H40a16 16 0 0 0-16 16v144a16 16 0 0 0 16 16h176a16 16 0 0 0 16-16V56a16 16 0 0 0-16-16ZM40 56h40v144H40Zm176 144H96V56h120v144Z"/></symbol><symbol xmlns="http://www.w3.org/2000/svg" id="done" viewBox="0 0 20 16"><path d="M19.542.934a1.386 1.386 0 0 0-2.02 0L6.918 11.882 2.465 7.274a1.45 1.45 0 0 0-.477-.317 1.415 1.415 0 0 0-1.113.02 1.454 1.454 0 0 0-.467.333 1.541 1.541 0 0 0 .036 2.12l5.465 5.636c.132.137.29.247.463.321a1.386 1.386 0 0 0 1.557-.321L19.542 3.09a1.506 1.506 0 0 0 0-2.157Z"/></symbol><symbol xmlns="http://www.w3.org/2000/svg" id="home" viewBox="0 0 17 19"><path d="M17 6.65v11.4c0 .252-.1.494-.277.672a.941.941 0 0 1-.667.278h-4.723c-.25 0-.49-.1-.668-.278a.953.953 0 0 1-.276-.672v-4.16a1.975 1.975 0 0 0-.423-1.28 1.954 1.954 0 0 0-1.145-.705 1.88 1.88 0 0 0-1.548.428c-.428.367-.67.906-.662 1.471v4.247a.942.942 0 0 1-.944.95H.944a.94.94 0 0 1-.667-.278A.953.953 0 0 1 0 18.05V6.65c0-.299.14-.58.378-.76L7.933.19a.941.941 0 0 1 1.134 0l7.555 5.7c.238.18.378.461.378.76Z"/></symbol><symbol xmlns="http://www.w3.org/2000/svg" id="long_arrow" viewBox="0 0 55 24"><path d="M54.06 13.06a1.5 1.5 0 0 0 0-2.12l-9.545-9.547a1.5 1.5 0 1 0-2.122 2.122L50.88 12l-8.486 8.485a1.5 1.5 0 1 0 2.122 2.122l9.546-9.546ZM0 13.5h53v-3H0v3Z"/></symbol><symbol xmlns="http://www.w3.org/2000/svg" id="notification" fill="none" viewBox="0 0 18 22"><path d="M15.75 12.328V8.822a6.538 6.538 0 0 0-1.597-4.267 6.783 6.783 0 0 0-4.028-2.25V1.103c0-.293-.119-.573-.33-.78A1.137 1.137 0 0 0 9 0c-.298 0-.585.116-.796.323-.21.207-.329.487-.329.78v1.202a6.783 6.783 0 0 0-4.028 2.25A6.538 6.538 0 0 0 2.25 8.822v3.506a3.37 3.37 0 0 0-1.628 1.205A3.263 3.263 0 0 0 0 15.438v2.205c0 .293.118.573.33.78.21.207.497.323.795.323h3.532a4.41 4.41 0 0 0 1.61 2.347A4.56 4.56 0 0 0 9 22a4.56 4.56 0 0 0 2.733-.907 4.408 4.408 0 0 0 1.61-2.347h3.532c.298 0 .584-.116.796-.323.21-.207.329-.487.329-.78v-2.205a3.264 3.264 0 0 0-.622-1.905 3.369 3.369 0 0 0-1.628-1.205ZM4.5 8.822a4.37 4.37 0 0 1 1.318-3.12A4.547 4.547 0 0 1 9 4.412c1.193 0 2.338.465 3.182 1.292A4.367 4.367 0 0 1 13.5 8.822v3.308h-9V8.822ZM9 19.849a2.285 2.285 0 0 1-1.117-.3 2.229 2.229 0 0 1-.818-.803h3.87a2.23 2.23 0 0 1-.818.804c-.34.193-.724.296-1.117.299Zm6.75-3.308H2.25v-1.103c0-.293.119-.573.33-.78.21-.207.497-.323.795-.323h11.25c.298 0 .585.116.796.323.21.207.329.487.329.78v1.103Z"/></symbol><symbol xmlns="http://www.w3.org/2000/svg" id="phone" viewBox="0 0 21 22"><path d="M21 15.2v5.25a1.05 1.05 0 0 1-1.05 1.05A19.949 19.949 0 0 1 0 1.55 1.05 1.05 0 0 1 1.05.5H6.3c.351.002.678.18.872.473l2.1 3.15a1.05 1.05 0 0 1-.127 1.322L7.582 7c1.9 3.612 3.538 5.25 6.899 6.93l1.575-1.575a1.05 1.05 0 0 1 1.323-.126l3.15 2.1c.293.193.47.52.472.87Z"/></symbol><symbol xmlns="http://www.w3.org/2000/svg" id="search" viewBox="0 0 22 22"><path d="M9.168 17.181a8.22 8.22 0 0 0 4.748-1.515l5.034 4.987c.234.231.542.347.86.347.69 0 1.19-.526 1.19-1.2 0-.315-.106-.61-.34-.841l-5.002-4.966a8.01 8.01 0 0 0 1.678-4.903C17.336 4.64 13.66 1 9.168 1 4.664 1 1 4.64 1 9.09c0 4.45 3.664 8.091 8.168 8.091Zm0-1.747c-3.516 0-6.405-2.872-6.405-6.344 0-3.471 2.89-6.344 6.405-6.344 3.505 0 6.405 2.873 6.405 6.344 0 3.472-2.9 6.345-6.405 6.345Z"/></symbol><symbol xmlns="http://www.w3.org/2000/svg" id="spin" viewBox="0 0 24 24"><path d="M12 24A12 12 0 1 1 22.714 6.59a1 1 0 1 1-1.785.9 10 10 0 1 0-.011 9.038 1 1 0 0 1 1.781.908A11.955 11.955 0 0 1 12 24Z"/></symbol><symbol xmlns="http://www.w3.org/2000/svg" id="user" viewBox="0 0 256 256"><path d="M230.92 212c-15.23-26.33-38.7-45.21-66.09-54.16a72 72 0 1 0-73.66 0c-27.39 8.94-50.86 27.82-66.09 54.16a8 8 0 1 0 13.85 8c18.84-32.56 52.14-52 89.07-52s70.23 19.44 89.07 52a8 8 0 1 0 13.85-8ZM72 96a56 56 0 1 1 56 56 56.06 56.06 0 0 1-56-56Z"/></symbol></svg>